<svg width="24" height="24" viewBox="0 0 24 24" fill="var(--white)" xmlns="http://www.w3.org/2000/svg">
    <path d="M20.4375 3H16.7344C16.2328 3 15.9844 3.60469 16.3359 3.96094L17.1281 4.75313L13.3453 8.53594C12.3047 7.87969 11.0719 7.5 9.75 7.5C6.02344 7.5 3 10.5234 3 14.25C3 17.9766 6.02344 21 9.75 21C13.4766 21 16.5 17.9766 16.5 14.25C16.5 12.9281 16.1203 11.6953 15.4641 10.6547L19.2469 6.87188L20.0391 7.66406C20.3953 8.02031 21 7.76719 21 7.26562V3.5625C21 3.25313 20.7469 3 20.4375 3V3ZM9.75 18C7.68281 18 6 16.3172 6 14.25C6 12.1828 7.68281 10.5 9.75 10.5C11.8172 10.5 13.5 12.1828 13.5 14.25C13.5 16.3172 11.8172 18 9.75 18Z" />
</svg>
