<svg width="24" height="24" viewBox="0 0 24 24" fill="var(--white)" xmlns="http://www.w3.org/2000/svg">
    <path d="M18.75 8.25C18.75 4.52344 15.7266 1.5 12 1.5C8.27344 1.5 5.25 4.52344 5.25 8.25C5.25 11.4609 7.49531 14.1516 10.5 14.8312V17.25H8.8125C8.50313 17.25 8.25 17.5031 8.25 17.8125V19.6875C8.25 19.9969 8.50313 20.25 8.8125 20.25H10.5V21.9375C10.5 22.2469 10.7531 22.5 11.0625 22.5H12.9375C13.2469 22.5 13.5 22.2469 13.5 21.9375V20.25H15.1875C15.4969 20.25 15.75 19.9969 15.75 19.6875V17.8125C15.75 17.5031 15.4969 17.25 15.1875 17.25H13.5V14.8312C16.5047 14.1516 18.75 11.4609 18.75 8.25V8.25ZM8.25 8.25C8.25 6.18281 9.93281 4.5 12 4.5C14.0672 4.5 15.75 6.18281 15.75 8.25C15.75 10.3172 14.0672 12 12 12C9.93281 12 8.25 10.3172 8.25 8.25Z" />
</svg>
